<svg width="74" height="74" viewBox="0 0 74 74" fill="none" xmlns="http://www.w3.org/2000/svg">
    <g opacity="0.2">
        <path d="M36.9998 59.2003C29.2915 59.2003 22.4773 55.2537 18.4998 49.3337C18.5923 43.167 30.8332 39.7753 36.9998 39.7753C43.1665 39.7753 55.4073 43.167 55.4998 49.3337C51.5223 55.2537 44.7082 59.2003 36.9998 59.2003ZM36.9998 15.417C39.4531 15.417 41.8059 16.3915 43.5406 18.1263C45.2753 19.861 46.2498 22.2137 46.2498 24.667C46.2498 27.1202 45.2753 29.473 43.5406 31.2077C41.8059 32.9424 39.4531 33.917 36.9998 33.917C34.5466 33.917 32.1938 32.9424 30.4591 31.2077C28.7244 29.473 27.7498 27.1202 27.7498 24.667C27.7498 22.2137 28.7244 19.861 30.4591 18.1263C32.1938 16.3915 34.5466 15.417 36.9998 15.417ZM36.9998 6.16699C32.9507 6.16699 28.9413 6.96452 25.2004 8.51404C21.4596 10.0636 18.0605 12.3347 15.1974 15.1979C9.41501 20.9802 6.1665 28.8228 6.1665 37.0003C6.1665 45.1778 9.41501 53.0204 15.1974 58.8028C18.0605 61.6659 21.4596 63.9371 25.2004 65.4866C28.9413 67.0361 32.9507 67.8337 36.9998 67.8337C45.1773 67.8337 53.0199 64.5852 58.8023 58.8028C64.5847 53.0204 67.8332 45.1778 67.8332 37.0003C67.8332 19.9495 53.9582 6.16699 36.9998 6.16699Z"
              fill="white"/>
    </g>
</svg>
